<svg xmlns="http://www.w3.org/2000/svg" viewBox="0 0 469.33 469.33"><title>code</title><g id="Capa_2" data-name="Capa 2"><g id="Capa_1-2" data-name="Capa 1"><path d="M42.67,0h384a42.66,42.66,0,0,1,42.67,42.67v384a42.66,42.66,0,0,1-42.67,42.67h-384A42.66,42.66,0,0,1,0,426.66v-384A42.66,42.66,0,0,1,42.67,0Z" style="fill:#5628b4"/><path d="M21.33,85.34H448a21.33,21.33,0,0,1,21.33,21.33h0A21.33,21.33,0,0,1,448,128H21.33A21.33,21.33,0,0,1,0,106.67H0A21.33,21.33,0,0,1,21.33,85.34Z" style="fill:#3d068c"/><path d="M42.67,0h384a42.66,42.66,0,0,1,42.66,42.67h0v64H0v-64A42.66,42.66,0,0,1,42.67,0Z" style="fill:#dfd2f2"/><path d="M42.67,0h384A21.33,21.33,0,0,1,448,21.33h0a21.33,21.33,0,0,1-21.33,21.34h-384A21.34,21.34,0,0,1,21.33,21.33h0A21.34,21.34,0,0,1,42.67,0Z" style="fill:#eee7f8"/><path d="M117.33,149.34H416A10.67,10.67,0,0,1,426.67,160h0A10.67,10.67,0,0,1,416,170.67H117.33A10.67,10.67,0,0,1,106.67,160h0A10.66,10.66,0,0,1,117.33,149.34Z" style="fill:#b8a4df"/><path d="M117.33,192H224a10.67,10.67,0,0,1,10.67,10.66h0A10.67,10.67,0,0,1,224,213.33H117.33a10.67,10.67,0,0,1-10.66-10.67h0A10.66,10.66,0,0,1,117.33,192Z" style="fill:#f7b236"/><path d="M117.33,234.67H224a10.67,10.67,0,0,1,10.67,10.66h0A10.67,10.67,0,0,1,224,256H117.33a10.67,10.67,0,0,1-10.66-10.67h0A10.66,10.66,0,0,1,117.33,234.67Z" style="fill:#b8a4df"/><path d="M117.33,320H160a10.67,10.67,0,0,1,10.67,10.66h0A10.67,10.67,0,0,1,160,341.33H117.33a10.67,10.67,0,0,1-10.66-10.67h0A10.66,10.66,0,0,1,117.33,320Z" style="fill:#7f5cc6"/><path d="M117.33,277.34H160A10.67,10.67,0,0,1,170.67,288h0A10.67,10.67,0,0,1,160,298.67H117.33A10.67,10.67,0,0,1,106.67,288h0A10.66,10.66,0,0,1,117.33,277.34Z" style="fill:#7f5cc6"/><path d="M53.33,405.34H74.67A10.66,10.66,0,0,1,85.33,416h0a10.67,10.67,0,0,1-10.66,10.67H53.33A10.67,10.67,0,0,1,42.67,416h0A10.66,10.66,0,0,1,53.33,405.34Z" style="fill:#d80e70"/><path d="M53.33,362.67H74.67a10.66,10.66,0,0,1,10.66,10.66h0A10.67,10.67,0,0,1,74.67,384H53.33a10.67,10.67,0,0,1-10.66-10.67h0A10.66,10.66,0,0,1,53.33,362.67Z" style="fill:#d80e70"/><path d="M53.33,277.34H74.67A10.66,10.66,0,0,1,85.33,288h0a10.67,10.67,0,0,1-10.66,10.67H53.33A10.67,10.67,0,0,1,42.67,288h0A10.66,10.66,0,0,1,53.33,277.34Z" style="fill:#d80e70"/><path d="M53.33,320H74.67a10.66,10.66,0,0,1,10.66,10.66h0a10.67,10.67,0,0,1-10.66,10.67H53.33a10.67,10.67,0,0,1-10.66-10.67h0A10.66,10.66,0,0,1,53.33,320Z" style="fill:#d80e70"/><path d="M53.33,234.67H74.67a10.66,10.66,0,0,1,10.66,10.66h0A10.66,10.66,0,0,1,74.67,256H53.33a10.67,10.67,0,0,1-10.66-10.67h0A10.66,10.66,0,0,1,53.33,234.67Z" style="fill:#d80e70"/><path d="M53.33,192H74.67a10.66,10.66,0,0,1,10.66,10.66h0a10.66,10.66,0,0,1-10.66,10.67H53.33a10.67,10.67,0,0,1-10.66-10.67h0A10.66,10.66,0,0,1,53.33,192Z" style="fill:#d80e70"/><path d="M53.33,149.34H74.67A10.66,10.66,0,0,1,85.33,160h0a10.66,10.66,0,0,1-10.66,10.67H53.33A10.67,10.67,0,0,1,42.67,160h0A10.66,10.66,0,0,1,53.33,149.34Z" style="fill:#d80e70"/><path d="M117.33,405.34h21.34A10.66,10.66,0,0,1,149.33,416h0a10.67,10.67,0,0,1-10.66,10.67H117.33A10.67,10.67,0,0,1,106.67,416h0A10.66,10.66,0,0,1,117.33,405.34Z" style="fill:#7f5cc6"/><path d="M117.33,362.67h64A10.67,10.67,0,0,1,192,373.33h0A10.67,10.67,0,0,1,181.33,384h-64a10.67,10.67,0,0,1-10.66-10.67h0A10.66,10.66,0,0,1,117.33,362.67Z" style="fill:#b8a4df"/><path d="M224,362.67h64a10.67,10.67,0,0,1,10.67,10.66h0A10.67,10.67,0,0,1,288,384H224a10.67,10.67,0,0,1-10.66-10.67h0A10.66,10.66,0,0,1,224,362.67Z" style="fill:#b8a4df"/><path d="M266.66,234.67H373.33A10.67,10.67,0,0,1,384,245.33h0A10.67,10.67,0,0,1,373.33,256H266.66A10.67,10.67,0,0,1,256,245.33h0A10.66,10.66,0,0,1,266.66,234.67Z" style="fill:#b8a4df"/><circle cx="53.34" cy="53.34" r="10.67" style="fill:#f7b236"/><circle cx="96" cy="53.34" r="10.67" style="fill:#420fab"/><circle cx="138.67" cy="53.34" r="10.67" style="fill:#d80e70"/><path d="M32,85.34H437.34A10.66,10.66,0,0,1,448,96h0a10.67,10.67,0,0,1-10.66,10.67H32A10.67,10.67,0,0,1,21.33,96h0A10.67,10.67,0,0,1,32,85.34Z" style="fill:#c6afe8"/><path d="M458.67,149.33A10.67,10.67,0,0,0,448,160h0V426.67A21.33,21.33,0,0,1,426.67,448H309.33a10.67,10.67,0,0,0,0,21.33H426.67a42.66,42.66,0,0,0,42.66-42.66V160a10.67,10.67,0,0,0-10.66-10.67Z" style="fill:#3d068c"/><path d="M10.67,149.34h0c5.89,0,10.66,5.64,10.66,12.6V414.06c0,7-4.77,12.61-10.66,12.61h0C4.78,426.67,0,421,0,414.06V161.94C0,155,4.78,149.34,10.67,149.34Z" style="fill:#7047bf"/></g></g></svg>