<svg xmlns="http://www.w3.org/2000/svg" viewBox="0 0 34.86 40"><title>github</title><g id="Capa_2" data-name="Capa 2"><g id="Capa_1-2" data-name="Capa 1"><path d="M23.27,25.7A5.87,5.87,0,0,1,25,30.28v7.28a5.88,5.88,0,0,1-.58,1.82,26,26,0,0,1-5.68.62,26.18,26.18,0,0,1-5.63-.61,6.23,6.23,0,0,1-.67-2.82c0-.92-.06-2.28-.06-3.65-7.07,1.5-8.56-3.36-8.56-3.36A6.74,6.74,0,0,0,1,25.91c-2.3-1.51.18-1.51.18-1.51A5.28,5.28,0,0,1,5.06,27a5.49,5.49,0,0,0,7.42,2.07,5.34,5.34,0,0,1,1.61-3.35C8.44,25.07,2.51,23,2.51,13.37a9.57,9.57,0,0,1,2.6-6.7A8.8,8.8,0,0,1,5.33.06s2.13-.64,7,2.6a24.33,24.33,0,0,1,12.73,0c4.82-3.28,7-2.6,7-2.6a9.14,9.14,0,0,1,.26,6.61,9.57,9.57,0,0,1,2.6,6.7C34.86,23,28.92,25.08,23.27,25.7Z" style="fill:#fff"/></g></g></svg>