<svg xmlns="http://www.w3.org/2000/svg" viewBox="0 0 26.37 40"><title>how</title><g id="Capa_2" data-name="Capa 2"><g id="Capa_1-2" data-name="Capa 1"><path d="M13,6.16c3.24,0,5.19,1.73,5.19,4.65,0,5.3-9.46,6.76-9.46,13.19a3.44,3.44,0,0,0,3.46,3.62c3.57,0,3.13-2.65,4.43-4.54,1.73-2.54,9.78-5.24,9.78-12.27C26.37,3.19,19.57,0,12.65,0,6.06,0,0,4.7,0,10a3.23,3.23,0,0,0,3.51,3.3C8.75,13.3,6.05,6.16,13,6.16Z" style="fill:#fff"/><path d="M16.81,35.57A4.44,4.44,0,1,0,12.37,40,4.45,4.45,0,0,0,16.81,35.57Z" style="fill:#fff"/></g></g></svg>