<svg xmlns="http://www.w3.org/2000/svg" viewBox="0 0 512.09 512.09"><title>information</title><g id="Capa_2" data-name="Capa 2"><g id="Capa_1-2" data-name="Capa 1"><path d="M236.76,511.35A255.68,255.68,0,0,0,381.93,479a17.35,17.35,0,0,1,8.55-2.29H512l-39.49-65.87a17.91,17.91,0,0,1,.4-18.78A256,256,0,1,0,236.76,511.35Z" style="fill:#3d068c"/><circle cx="256.06" cy="256.04" r="203.03" style="fill:#5628b4"/><circle cx="256.06" cy="141.29" r="35.31" style="fill:#fff"/><path d="M238.4,256v70.63a8.82,8.82,0,0,1-8.82,8.82H211.92a8.84,8.84,0,0,0-8.83,8.83v35.31a8.83,8.83,0,0,0,8.83,8.83H317.85a8.83,8.83,0,0,0,8.83-8.83V344.32a8.83,8.83,0,0,0-8.83-8.83H300.2a8.82,8.82,0,0,1-8.83-8.82V220.73a8.82,8.82,0,0,0-8.83-8.82H220.75a8.82,8.82,0,0,0-8.83,8.82v17.66a8.83,8.83,0,0,0,8.83,8.83h8.83A8.82,8.82,0,0,1,238.4,256Z" style="fill:#fff"/></g></g></svg>