<svg xmlns="http://www.w3.org/2000/svg" viewBox="0 0 13.79 40"><title>info</title><g id="Capa_2" data-name="Capa 2"><g id="Capa_1-2" data-name="Capa 1"><path d="M12.41,34.48H11V12.6a1.34,1.34,0,0,0-.41-1,1.36,1.36,0,0,0-1-.41H1.38a1.34,1.34,0,0,0-1,.41,1.34,1.34,0,0,0-.41,1v2.76a1.34,1.34,0,0,0,.41,1,1.34,1.34,0,0,0,1,.41H2.76V34.48H1.38a1.34,1.34,0,0,0-1,.41,1.34,1.34,0,0,0-.41,1v2.76a1.34,1.34,0,0,0,.41,1,1.34,1.34,0,0,0,1,.41h11a1.32,1.32,0,0,0,1-.41,1.3,1.3,0,0,0,.41-1V35.86a1.3,1.3,0,0,0-.41-1A1.32,1.32,0,0,0,12.41,34.48Z" style="fill:#fff"/><circle cx="6.61" cy="4.63" r="4.63" style="fill:#fff"/></g></g></svg>