<svg xmlns="http://www.w3.org/2000/svg" viewBox="0 0 512 384"><title>queen</title><g id="Capa_2" data-name="Capa 2"><g id="Layer_1" data-name="Layer 1"><path d="M479.24,128A32,32,0,0,0,451,173.54c-17.55,14.89-42,30.21-55.13,26.94-1.29-.32-7.83-8.42-7.88-39.15a305.66,305.66,0,0,1,2.07-33.91,32,32,0,0,0-8.43-63.34C358,65.74,344.15,92.26,356.72,112.7c-12.05,18-31,38.74-44.19,39.29-1.67-.94-12.36-8.48-26.73-53.27-5.47-17.06-11.19-40.3-11.19-40.71a32,32,0,1,0-37.22,0c0,.33-5.08,21.65-11.19,40.71-14.37,44.79-25.06,52.33-26.73,53.27-13.22-.55-32.15-21.34-44.19-39.29,12.57-20.43-1.27-46.95-24.91-48.62a32,32,0,0,0-8.44,63.34A305.66,305.66,0,0,1,124,161.33c0,30.73-6.59,38.83-7.88,39.15-13.1,3.28-37.58-12-55.13-26.94A32,32,0,1,0,30.48,192a497.8,497.8,0,0,1,36.83,92.37A5,5,0,0,0,72.12,288H439.88a5,5,0,0,0,4.81-3.67A497.34,497.34,0,0,1,481.53,192a32,32,0,0,0-2.29-64ZM256,264c-14.35,0-24-14.47-24-36s9.65-36,24-36,24,14.47,24,36-9.65,36-24,36Z" style="fill:#fff"/><path d="M76.49,325.78A268.8,268.8,0,0,1,80,368,16,16,0,0,0,95.91,384H416.09A16,16,0,0,0,432,368a270.11,270.11,0,0,1,3.51-42.17,5,5,0,0,0-4.93-5.78H81.43a5,5,0,0,0-4.94,5.78Z" style="fill:#fff"/></g></g></svg>