<svg xmlns="http://www.w3.org/2000/svg" viewBox="0 0 510.97 512"><title>rules</title><g id="Capa_2" data-name="Capa 2"><g id="Capa_1-2" data-name="Capa 1"><path d="M477.12,0H134.81A34,34,0,0,0,101,33.85V376.16A34,34,0,0,0,134.81,410H477.12A34,34,0,0,0,511,376.16V33.85A34,34,0,0,0,477.12,0Z" style="fill:#3d068c"/><path d="M183.37,376.17V33.85A34,34,0,0,1,217.22,0H134.81A34,34,0,0,0,101,33.85V376.17A33.94,33.94,0,0,0,134.81,410h82.41a33.94,33.94,0,0,1-33.85-33.84Z" style="fill:#280678"/><path d="M483.9,116V37.68a10.61,10.61,0,0,0-10.6-10.61H394.93l-11.68,5.55H314.58L306,27.07H217l-89,89v89l10.73,11v66.61L128,294v78.36a10.6,10.6,0,0,0,10.6,10.6H217l11.73-9.67H294l12,9.67h89l89-89V205l-11.36-13V124.07Z" style="fill:#f4eeff"/><path d="M184.06,382.94a33.68,33.68,0,0,1-.69-6.78V60.69L128,116v89l10.73,11v66.62L128,294v78.37a10.6,10.6,0,0,0,10.6,10.6Z" style="fill:#b8a4df"/><path d="M128,205h89v89H128Z" style="fill:#5628b4"/><path d="M128,205h55.35v89H128Z" style="fill:#3d068c"/><path d="M306,205h89v89H306Z" style="fill:#5628b4"/><path d="M217,116h89v89H217Z" style="fill:#5628b4"/><path d="M394.93,116h89v89h-89Z" style="fill:#5628b4"/><path d="M306,27.07h89v89H306Z" style="fill:#5628b4"/><path d="M394.93,383h81.19a7.78,7.78,0,0,0,7.78-7.78V294h-89Z" style="fill:#5628b4"/><path d="M128,34.85V116h89v-89H135.81A7.78,7.78,0,0,0,128,34.85Z" style="fill:#5628b4"/><path d="M183.37,33.85a33.68,33.68,0,0,1,.69-6.78H135.8A7.78,7.78,0,0,0,128,34.85V116h55.35V33.85Z" style="fill:#3d068c"/><path d="M217,294h89v89H217Z" style="fill:#5628b4"/><path d="M350.45,349.13a7.73,7.73,0,0,1-7.73-7.73V179.72a7.73,7.73,0,0,1,15.46,0V341.4a7.73,7.73,0,0,1-7.73,7.73Z" style="fill:#d80e70"/><path d="M350.45,150.09a7.72,7.72,0,0,1-7.73-7.72V67.65a7.73,7.73,0,0,1,15.46,0v74.72a7.72,7.72,0,0,1-7.73,7.72Z" style="fill:#d80e70"/><path d="M443.31,168.25H369.42a7.73,7.73,0,1,1,0-15.45h73.89a7.73,7.73,0,1,1,0,15.45Z" style="fill:#d80e70"/><path d="M332.08,168.25H169.48a7.73,7.73,0,1,1,0-15.45h162.6a7.73,7.73,0,0,1,0,15.45Z" style="fill:#d80e70"/><path d="M364.31,154.38a7.73,7.73,0,0,1-5.46-13.19L442.5,57.54a7.73,7.73,0,1,1,10.93,10.93l-83.65,83.65A7.71,7.71,0,0,1,364.31,154.38Z" style="fill:#d80e70"/><path d="M338,155.77a7.7,7.7,0,0,1-5.46-2.26l-85-85A7.73,7.73,0,0,1,258.4,57.55l85,85A7.73,7.73,0,0,1,338,155.77Z" style="fill:#d80e70"/><path d="M448,265.76a7.68,7.68,0,0,1-5.46-2.26l-83.65-83.65a7.73,7.73,0,0,1,10.93-10.93l83.65,83.65A7.73,7.73,0,0,1,448,265.76Z" style="fill:#d80e70"/><path d="M175.12,343.58a7.73,7.73,0,0,1-5.47-13.19L331.81,168.23a7.73,7.73,0,0,1,10.92,10.93L180.58,341.32a7.7,7.7,0,0,1-5.46,2.26Z" style="fill:#d80e70"/><path d="M350.45,143.44a17.08,17.08,0,1,0,17.08,17.08A17.1,17.1,0,0,0,350.45,143.44Z" style="fill:#ffc250"/><path d="M435.3,184.73a7.73,7.73,0,0,1-5.46-13.19l11-11-11-11a7.73,7.73,0,1,1,10.92-10.93l16.49,16.49a7.73,7.73,0,0,1,0,10.92l-16.49,16.49a7.68,7.68,0,0,1-5.46,2.26Z" style="fill:#b6086c"/><path d="M451.07,90.93a7.72,7.72,0,0,1-7.72-7.72V67.62H427.76a7.73,7.73,0,0,1,0-15.45h23.31a7.73,7.73,0,0,1,7.73,7.73V83.21A7.72,7.72,0,0,1,451.07,90.93Z" style="fill:#b6086c"/><path d="M177.72,184.73a7.68,7.68,0,0,1-5.46-2.26L155.77,166a7.73,7.73,0,0,1,0-10.92l16.49-16.49a7.73,7.73,0,0,1,10.92,10.93l-11,11,11,11a7.73,7.73,0,0,1-5.46,13.19Z" style="fill:#b6086c"/><path d="M366.93,83.4a7.69,7.69,0,0,1-5.46-2.27l-11-11-11,11A7.73,7.73,0,0,1,328.5,70.21L345,53.72a7.74,7.74,0,0,1,10.93,0L372.4,70.21a7.73,7.73,0,0,1-5.47,13.19Z" style="fill:#b6086c"/><path d="M350.45,359.56a7.68,7.68,0,0,1-5.46-2.27L328.5,340.81a7.73,7.73,0,0,1,10.93-10.93l11,11,11-11a7.73,7.73,0,0,1,10.93,10.93l-16.49,16.48a7.69,7.69,0,0,1-5.46,2.27Z" style="fill:#b6086c"/><path d="M249.82,90.93a7.72,7.72,0,0,1-7.72-7.72V59.9a7.73,7.73,0,0,1,7.72-7.73h23.31a7.73,7.73,0,1,1,0,15.45H257.55V83.21a7.72,7.72,0,0,1-7.73,7.72Z" style="fill:#b6086c"/><path d="M451.07,268.87H427.76a7.73,7.73,0,0,1,0-15.45h15.59V237.84a7.73,7.73,0,1,1,15.45,0v23.31A7.73,7.73,0,0,1,451.07,268.87Z" style="fill:#b6086c"/><path d="M186.77,354.73H163.46a7.73,7.73,0,0,1-7.73-7.73V323.69a7.73,7.73,0,0,1,15.46,0v15.59h15.58a7.73,7.73,0,1,1,0,15.45Z" style="fill:#b6086c"/><path d="M350.45,160.52A17.08,17.08,0,0,1,359,145.75a17.08,17.08,0,1,0,0,29.54A17.07,17.07,0,0,1,350.45,160.52Z" style="fill:#f7b236"/><path d="M102,347.34l-2.29-2.95H69.53l-3.11,2.95A290,290,0,0,1,56,443.11v1.94h54.2l2.21-1.94A290,290,0,0,1,102,347.34Z" style="fill:#ffd064"/><path d="M85.71,347.34l1.8-2.95h-18l-3.11,2.95A290,290,0,0,1,56,443.11v1.94H79.65v-1.94A491.64,491.64,0,0,0,85.71,347.34Z" style="fill:#ffc250"/><path d="M135.56,262.59,117.1,277.08a5.06,5.06,0,0,1-7.65-1.7L93.17,243.25a18.86,18.86,0,0,1-16.52,0l-12,23.65v2.89l16,48.42h41.06l26.79-49a18.8,18.8,0,0,1-13-6.65Z" style="fill:#ffd064"/><path d="M81.41,317.7,64.67,266.91l-4.29,8.48a5.07,5.07,0,0,1-7.65,1.69L34.26,262.59a18.76,18.76,0,0,1-13,6.65l25.3,49H81.08Z" style="fill:#ffc250"/><path d="M121.47,317.7H79.35A11.59,11.59,0,0,0,67.8,329.25v6.54a11.59,11.59,0,0,0,11.55,11.55h42.12A11.58,11.58,0,0,0,133,335.79v-6.54A11.59,11.59,0,0,0,121.47,317.7Z" style="fill:#ffe07d"/><path d="M69.86,335.79v-6.54A11.59,11.59,0,0,1,81.41,317.7H46.9a11.59,11.59,0,0,0-11.55,11.55v6.54A11.59,11.59,0,0,0,46.9,347.34H81.41A11.59,11.59,0,0,1,69.86,335.79Z" style="fill:#ffd064"/><circle cx="84.91" cy="226.43" r="19.25" style="fill:#ffc250"/><circle cx="149.92" cy="250.54" r="19.25" style="fill:#ffc250"/><circle cx="19.91" cy="250.54" r="19.25" style="fill:#ffc250"/><path d="M83.86,226.43a19.23,19.23,0,0,1,10.15-17,19.25,19.25,0,1,0,0,33.92,19.23,19.23,0,0,1-10.15-17Z" style="fill:#ebb044"/><path d="M148.87,250.54a19.22,19.22,0,0,1,10.15-17,19.25,19.25,0,1,0,0,33.92,19.21,19.21,0,0,1-10.15-17Z" style="fill:#ebb044"/><path d="M18.86,250.54a19.24,19.24,0,0,1,10.15-17,19.25,19.25,0,1,0,0,33.92,19.23,19.23,0,0,1-10.15-17Z" style="fill:#ebb044"/><path d="M129.37,460a21,21,0,0,0-20.74-17.25H59.74A21,21,0,0,0,39,460c-1.26,7.13-5.24,15.34-15.25,22.34L25,485.14H141.69l2.93-2.78c-10-7-14-15.21-15.25-22.34Z" style="fill:#ffc250"/><path d="M68.64,460c1.27-10,7.61-17.25,14.92-17.25H59.74A21,21,0,0,0,39,460c-1.26,7.13-5.24,15.34-15.25,22.34L25,485.14H58.55l-.88-2.78A37.05,37.05,0,0,0,68.64,460Z" style="fill:#ebb044"/><path d="M156.82,482.36H54.65A11.58,11.58,0,0,0,43.1,493.91v6.54A11.58,11.58,0,0,0,54.65,512H156.82a11.59,11.59,0,0,0,11.55-11.55v-6.54a11.59,11.59,0,0,0-11.55-11.55Z" style="fill:#ffd064"/><path d="M45.16,500.45v-6.54a11.58,11.58,0,0,1,11.55-11.55H11.55A11.59,11.59,0,0,0,0,493.91v6.54A11.59,11.59,0,0,0,11.55,512H56.71A11.58,11.58,0,0,1,45.16,500.45Z" style="fill:#ffc250"/></g></g></svg>